<svg xmlns="http://www.w3.org/2000/svg" width="55.816" height="23.681" viewBox="0 0 55.816 23.681">
  <g id="apple-pay_5977576" transform="translate(0 0)">
    <g id="Group_44" data-name="Group 44" transform="translate(0 0)">
      <g id="Group_42" data-name="Group 42">
        <path id="Path_72" data-name="Path 72" d="M73.375,150.457a4.284,4.284,0,0,0,.986-3.053,4.247,4.247,0,0,0-2.815,1.457,4.01,4.01,0,0,0-1.009,2.935,3.544,3.544,0,0,0,2.839-1.339" transform="translate(-62.826 -147.404)"/>
        <path id="Path_73" data-name="Path 73" d="M11.522,189.575c-1.568-.093-2.9.89-3.65.89s-1.9-.843-3.136-.82A4.625,4.625,0,0,0,.8,192.033c-1.685,2.9-.445,7.213,1.194,9.578.8,1.17,1.755,2.459,3.018,2.412,1.194-.047,1.662-.773,3.113-.773s1.872.773,3.136.75c1.311-.023,2.13-1.171,2.926-2.342a10.391,10.391,0,0,0,1.31-2.693A4.253,4.253,0,0,1,12.95,195.1a4.335,4.335,0,0,1,2.059-3.63,4.483,4.483,0,0,0-3.487-1.9" transform="translate(0 -184.972)"/>
      </g>
      <g id="Group_43" data-name="Group 43" transform="translate(18.591 1.339)">
        <path id="Path_74" data-name="Path 74" d="M177.122,159.688a5.511,5.511,0,0,1,5.782,5.77,5.573,5.573,0,0,1-5.867,5.795h-3.774v6h-2.727V159.688Zm-3.859,9.276h3.129c2.374,0,3.725-1.278,3.725-3.494s-1.351-3.482-3.713-3.482h-3.141Z" transform="translate(-170.536 -159.688)"/>
        <path id="Path_75" data-name="Path 75" d="M290.52,210.629c0-2.24,1.716-3.616,4.76-3.787l3.506-.207v-.986c0-1.425-.962-2.277-2.568-2.277a2.452,2.452,0,0,0-2.7,1.875h-2.483c.146-2.314,2.118-4.018,5.283-4.018,3.1,0,5.088,1.644,5.088,4.213v8.827h-2.52v-2.106h-.061a4.576,4.576,0,0,1-4.042,2.325C292.273,214.488,290.52,212.93,290.52,210.629Zm8.266-1.157v-1.011l-3.153.195c-1.57.11-2.459.8-2.459,1.9,0,1.12.925,1.851,2.337,1.851A3.07,3.07,0,0,0,298.786,209.472Z" transform="translate(-277.44 -196.7)"/>
        <path id="Path_76" data-name="Path 76" d="M401.824,220.868v-2.13a4.866,4.866,0,0,0,.852.049,2.133,2.133,0,0,0,2.276-1.826c0-.024.232-.779.232-.791l-4.626-12.819h2.848l3.238,10.421h.048l3.239-10.421h2.775l-4.8,13.476c-1.1,3.1-2.361,4.1-5.015,4.1A10.157,10.157,0,0,1,401.824,220.868Z" transform="translate(-375.482 -198.588)"/>
      </g>
    </g>
  </g>
</svg>
