<svg xmlns="http://www.w3.org/2000/svg" width="36.608" height="21.902" viewBox="0 0 36.608 21.902">
  <g id="Layer_x0020_1" transform="translate(0 0)">
    <g id="_235782456" transform="translate(0 0)">
      <g id="Group_46" data-name="Group 46" transform="translate(0 0)">
        <path id="Path_77" data-name="Path 77" d="M549.068,1264.7l.214-.844c.822-.248,2.5-.36,2.814.529a14.011,14.011,0,0,1-.439,3.3l-.8.011c-.18-.225-.034.191-.158-.36-.766.687-2.4.574-2.274-.811s1.317-1.193,2.612-1.4c-.023-.878-1.126-.642-1.981-.439Zm6.023-.135c-.732,0-.844-.158-1.486.124.079.8.5.484,1.07.867,1.092.721-.079,2.95-2.679,1.993l.146-.811c.732.146,1.1.293,1.666-.022.135-1.137-1.88-.394-1.317-2.218.3-.991,1.644-.856,2.747-.754l-.158.822Zm-11.213-1.723,1.722.056.18,2.7.934-2.162c.315-.777.1-.608,2.083-.585l-.889,4.83-.968-.011.529-3.468-1.43,3.49-1.16-.034a25.162,25.162,0,0,0-.27-3.5l-.585,3.513-1.013-.011ZM560.3,1273.1l.473-.563c-.946-.124-1.115.146-1.542-.619l2.173-.023a6.314,6.314,0,0,0,.473-.7c-2.477-.169-3.175.462-3.569-.619h3.974l.439-.687-4.908-.023-.225-.574,5.291-.023c.3-.169.3-.36.383-.709l-5.01-.011c-.9.011-.957.214-1.126-.608h6.3l.2-.7-1.846-.022-.09.473-1.058-.045.664-3.929,1,.135c0,.023.023.1.023.135s.011.056.011.068l.056.2a1.145,1.145,0,0,1,1.115-.563l-.338.912c-.191.248-.754-.034-.991.642l1.1.045a7.118,7.118,0,0,1,.462-1.5l.011-.338-6.9.011-.023.248c.372,0,.36-.068.574.113l-.1.664c-.7.169-.675-.248-.743.664.1.169-.023.079.191.135l.439.011c.709-2.308,2.826-1.8,3.31-1.081.259.383.518,1.644-.124,1.745l-2.15.023c.1,1.137,1.407.9,2.252.619-.034.473,0,.856-.439,1.013a3.376,3.376,0,0,1-1.464,0,1.6,1.6,0,0,1-1.419-1.711l-.405-.011c-.372-.169-.079,0-.27-.462-.158.946-.585,1.554.585,1.419-.068.563.011.754-.608.822-1.8.214-1.216-.991-.923-2.6.462-2.567.1-2.252,1.407-2.229l6.71.011-.135-.7-6.485-.022.124-.563,6.136-.034c-.158-.957-.191-.721-2.42-.721h-3.4c.236-.822.113-.6,2.319-.6h2.983l-.315-.709-4.323-.011.293-.585,3.614-.022c-.462-.946-.439-.676-2.995-.721.326-.811.9-.608,1.9-.608-.281-.45-.484-.417-.653-.8a11.818,11.818,0,0,1-1.2-.889,10.945,10.945,0,1,0-4.165,19.794c3.22-.552,4.03-1.858,5.359-2.59Z" transform="translate(-541.975 -1253.981)" fill="#e41d2c" fill-rule="evenodd"/>
        <path id="Path_78" data-name="Path 78" d="M1875.785,1268.157c3.49-.709,2.916,1.013,2.634,2.409-.09.417-.09,1.238-.417,1.464a4.915,4.915,0,0,1-.585-.011c-.315-.124-.169.248-.214-.326-.946.541-2.443.664-2.263-.844.146-1.2,1.362-1.4,2.6-1.34-.045-.89-.856-.743-1.981-.462l.236-.889Zm3.445-.1.935.011a.209.209,0,0,1,.022.079l.146.417a1.144,1.144,0,0,1,.979-.5l-.135.8-.462.18c-.923.3-.867,1.464-1.115,2.984h-1.047Zm4.965-.856h.957l-.822,4.841c-1.069.011-.81.068-1.148-.338-.7,1.036-2.792.079-2.15-2.06.473-1.6,2.072-2.027,2.859-1.081l.315-1.374Zm-15.75-6.08c.169.383.383.349.653.8-1,0-1.576-.214-1.9.608,2.555.045,2.533-.225,2.995.721l-3.614.023-.293.585,4.323.011.315.709h-2.983c-2.2,0-2.083-.214-2.319.6h3.4c2.229,0,2.263-.236,2.421.721l-6.136.034-.124.563,6.485.023.135.7-6.71-.011-.09.63,6.9-.011-.011.338c.518-.5.428-.754,1.4-1.036a3.793,3.793,0,0,1,2.094.113l-.169,1.036c-1.351-.405-2.229-.3-2.544,1.092-.349,1.5.833,2.06,2.083,1.464-.113,1.092-.293,1.362-1.576,1.193a2.01,2.01,0,0,1-1.554-1.069h-1.61l-.09.619,1.846.022-.2.7h-6.3c.169.822.225.619,1.126.608l5.01.011c-.09.338-.079.54-.383.709l-5.291.023.225.574,4.908.023-.439.687h-3.974c.394,1.069,1.092.45,3.569.619a6.327,6.327,0,0,1-.473.7l-2.173.023c.417.754.6.5,1.542.619l-.473.563a11.017,11.017,0,0,0,12.192,1.644,10.943,10.943,0,0,0-.068-19.647,11.282,11.282,0,0,0-9.76.068,15.1,15.1,0,0,0-2.342,1.621Z" transform="translate(-1850.106 -1258.317)" fill="#f8b02b" fill-rule="evenodd"/>
        <g id="Group_45" data-name="Group 45" transform="translate(1.036 8.715)">
          <path id="Path_79" data-name="Path 79" d="M634,2045.1l1.013.011.585-3.513a25.167,25.167,0,0,1,.27,3.5l1.16.034,1.43-3.49-.529,3.468.968.011.889-4.83c-1.981-.022-1.767-.191-2.083.585l-.934,2.162-.18-2.7-1.722-.056Z" transform="translate(-634 -2040.121)" fill="#fefefe" fill-rule="evenodd"/>
          <path id="Path_80" data-name="Path 80" d="M3278.891,2046.918c-.844-.867-.124-2.308.664-2.117S3280.185,2046.9,3278.891,2046.918Zm1.373-2.556c-.788-.946-2.375-.518-2.859,1.081-.642,2.128,1.452,3.1,2.15,2.061.338.405.079.338,1.148.338l.822-4.841h-.957l-.315,1.374Z" transform="translate(-3247.526 -2042.832)" fill="#fefefe" fill-rule="evenodd"/>
          <path id="Path_81" data-name="Path 81" d="M2746.759,2117.407c-.157-.754.541-1.047,1.2-.912A.838.838,0,0,1,2746.759,2117.407Zm-.36-2.961-.236.889c1.125-.27,1.947-.417,1.981.462-1.239-.056-2.454.135-2.6,1.34-.191,1.509,1.317,1.385,2.262.844.045.574-.1.2.214.326a4.894,4.894,0,0,0,.586.011c.337-.214.337-1.047.417-1.464.292-1.407.855-3.118-2.634-2.409Z" transform="translate(-2721.756 -2113.309)" fill="#fefefe" fill-rule="evenodd"/>
          <path id="Path_82" data-name="Path 82" d="M1117.727,2117.733a.935.935,0,0,1-.293.867c-.169.124-.675.27-.878.079-.63-.574.552-.957,1.16-.946Zm-1.79-1.148c.856-.2,1.959-.439,1.981.439-1.295.2-2.488.022-2.612,1.4s1.5,1.5,2.274.811c.124.552-.023.135.157.36l.8-.011a14.1,14.1,0,0,0,.439-3.3c-.315-.9-1.981-.788-2.815-.529l-.214.844Z" transform="translate(-1109.88 -2114.582)" fill="#fefefe" fill-rule="evenodd"/>
          <path id="Path_83" data-name="Path 83" d="M1892.238,2112.823c.146-.574.394-.811,1.058-.72.236.337.236.236.281.72Zm-1.193.056-.045.608a1.619,1.619,0,0,0,1.418,1.711,3.37,3.37,0,0,0,1.464,0c.439-.146.405-.54.439-1.013-.844.281-2.15.518-2.252-.619l2.15-.022c.642-.1.383-1.351.124-1.745-.484-.72-2.6-1.227-3.31,1.081Z" transform="translate(-1876.849 -2110.256)" fill="#fefefe" fill-rule="evenodd"/>
          <path id="Path_84" data-name="Path 84" d="M2436.462,2029.161a7.126,7.126,0,0,0-.462,1.5v.619l.191.687a2.009,2.009,0,0,0,1.554,1.07c1.283.169,1.463-.1,1.576-1.193-1.261.6-2.432.034-2.083-1.464.326-1.407,1.2-1.5,2.544-1.092l.169-1.036a4.011,4.011,0,0,0-2.094-.113c-.968.27-.878.54-1.4,1.036Z" transform="translate(-2415.714 -2028.035)" fill="#fefefe" fill-rule="evenodd"/>
          <path id="Path_85" data-name="Path 85" d="M1435.242,2115.319c-1.1-.09-2.443-.236-2.747.754-.563,1.824,1.441,1.081,1.317,2.218-.574.315-.934.169-1.666.022l-.146.811c2.6.957,3.76-1.261,2.679-1.993-.574-.383-.991-.056-1.069-.867.642-.292.743-.124,1.486-.124l.157-.822Z" transform="translate(-1423.016 -2114.272)" fill="#fefefe" fill-rule="evenodd"/>
          <path id="Path_86" data-name="Path 86" d="M1720.054,2043.52l.079-.27c.068-.912.045-.5.743-.664l.1-.664c-.214-.18-.2-.113-.574-.113l.022-.248.09-.631c-1.306-.022-.946-.338-1.407,2.229-.293,1.61-.878,2.814.923,2.6.608-.068.54-.259.608-.822C1719.48,2045.073,1719.908,2044.465,1720.054,2043.52Z" transform="translate(-1706.567 -2040.762)" fill="#fefefe" fill-rule="evenodd"/>
          <path id="Path_87" data-name="Path 87" d="M2202.137,2122.4l.09-.619.113-.675.2-.676c.248-.676.81-.394.99-.642l.338-.912a1.123,1.123,0,0,0-1.115.563l-.056-.2c0-.011-.011-.045-.011-.067s-.022-.113-.022-.135l-1-.135-.664,3.929,1.058.045.09-.473Z" transform="translate(-2183.359 -2117.851)" fill="#fefefe" fill-rule="evenodd"/>
          <path id="Path_88" data-name="Path 88" d="M3069,2122.974h1.047c.247-1.52.191-2.679,1.115-2.983l.461-.18.135-.8a1.144,1.144,0,0,0-.979.5l-.146-.417c-.011-.023-.011-.056-.022-.079l-.935-.011Z" transform="translate(-3041.587 -2117.976)" fill="#fefefe" fill-rule="evenodd"/>
        </g>
        <path id="Path_89" data-name="Path 89" d="M3386.515,2203.6c1.306-.022,1.452-1.925.664-2.117S3385.671,2202.73,3386.515,2203.6Z" transform="translate(-3354.115 -2190.795)" fill="#f8b02b" fill-rule="evenodd"/>
        <path id="Path_90" data-name="Path 90" d="M1213.363,2307.979c-.608-.011-1.79.372-1.16.946.2.18.709.034.878-.079a.952.952,0,0,0,.293-.867Z" transform="translate(-1204.481 -2296.111)" fill="#e41d2c" fill-rule="evenodd"/>
        <path id="Path_91" data-name="Path 91" d="M2310,2316.676l1.61.011-.191-.687h-1.306Z" transform="translate(-2290.096 -2304.042)" fill="#e41d2c" fill-rule="evenodd"/>
        <path id="Path_92" data-name="Path 92" d="M2853,2309.5a.838.838,0,0,0,1.2-.912C2853.525,2308.461,2852.839,2308.753,2853,2309.5Z" transform="translate(-2826.957 -2296.683)" fill="#f8b02b" fill-rule="evenodd"/>
        <path id="Path_93" data-name="Path 93" d="M2320,2256.675h1.306v-.619l-1.1-.056Z" transform="translate(-2299.983 -2244.718)" fill="#f8b02b" fill-rule="evenodd"/>
        <path id="Path_94" data-name="Path 94" d="M2001,2191.087h1.34c-.034-.473-.045-.383-.281-.72C2001.394,2190.276,2001.146,2190.512,2001,2191.087Z" transform="translate(-1984.575 -2179.805)" fill="#e41d2c" fill-rule="evenodd"/>
        <path id="Path_95" data-name="Path 95" d="M1832,2248.281c.191.462-.1.293.27.462l.406.011.045-.608-.439-.011c-.225-.045-.1.034-.192-.135l-.079.27Z" transform="translate(-1817.477 -2236.808)" fill="#f8b02b" fill-rule="evenodd"/>
      </g>
    </g>
  </g>
</svg>
