<svg id="premium" xmlns="http://www.w3.org/2000/svg" width="50.469" height="58.834" viewBox="0 0 50.469 58.834">
  <path id="Path_55" data-name="Path 55" d="M86.412,108.557a1.759,1.759,0,0,0-1.519-.877H55.02a1.759,1.759,0,0,0-1.519.877l-2.132,3.692a.863.863,0,0,0,1.495.863l1.642-2.844,6.231,10.792H48.275l2.634-4.563a.863.863,0,1,0-1.495-.863l-3.188,5.522a1.4,1.4,0,0,0,.168,1.63l22.5,25.2a1.4,1.4,0,0,0,1.042.467h0a1.4,1.4,0,0,0,1.042-.466l22.542-25.2a1.4,1.4,0,0,0,.169-1.631Zm-14.635,12.5H63.726l6.231-10.792,6.231,10.792h-.075a.863.863,0,0,0,0,1.726h.416l-6.592,22.375-6.552-22.375h8.394a.863.863,0,0,0,0-1.726Zm5.9-.863-6.231-10.792H83.913Zm.645,2.589H91.2L72,144.246Zm13.311-1.726H79.177l6.231-10.792ZM56,109.406H68.462L62.231,120.2Zm5.584,13.381,6.285,21.462L48.708,122.787Z" transform="translate(-44.93 -95.306)" fill="#ae8b3b"/>
  <path id="Path_56" data-name="Path 56" d="M345.58,381.536a.864.864,0,0,0-.129-.071,8.423,8.423,0,0,1-1.5-.85.863.863,0,0,0-1.006,1.4,9.573,9.573,0,0,0,.833.534,8.065,8.065,0,0,0-3.789,4.471,8.065,8.065,0,0,0-3.789-4.47,8.064,8.064,0,0,0,3.789-4.471l.027.078a.863.863,0,1,0,1.63-.568c-.066-.188-.123-.384-.172-.581l-.359-1.466a1.16,1.16,0,0,0-2.253,0l-.359,1.465a6.641,6.641,0,0,1-3.98,4.456.859.859,0,0,0-.13.071,1.22,1.22,0,0,0,0,2.03.86.86,0,0,0,.13.071,6.641,6.641,0,0,1,3.98,4.455l.359,1.466a1.16,1.16,0,0,0,2.253,0l.359-1.465a6.641,6.641,0,0,1,3.98-4.455.875.875,0,0,0,.129-.071,1.22,1.22,0,0,0,0-2.03Z" transform="translate(-299.668 -331.608)" fill="#ae8b3b"/>
  <path id="Path_57" data-name="Path 57" d="M420.88,76.4a.856.856,0,0,0-.13-.071,2.864,2.864,0,0,1-1.764-1.957l-.181-.739h0a1.01,1.01,0,0,0-.983-.772h0a1.01,1.01,0,0,0-.983.772l-.181.739a2.864,2.864,0,0,1-1.764,1.957.862.862,0,0,0-.13.071,1.043,1.043,0,0,0,0,1.735.865.865,0,0,0,.129.071,2.864,2.864,0,0,1,1.764,1.957l.181.739a1.01,1.01,0,0,0,.983.772h0a1.01,1.01,0,0,0,.984-.772l.181-.739a2.864,2.864,0,0,1,1.764-1.957.861.861,0,0,0,.129-.071,1.043,1.043,0,0,0,0-1.735Zm-3.058,2.109a4.458,4.458,0,0,0-1.132-1.241,4.456,4.456,0,0,0,1.132-1.241,4.456,4.456,0,0,0,1.132,1.241A4.453,4.453,0,0,0,417.822,78.509Z" transform="translate(-370.876 -64.489)" fill="#ae8b3b"/>
  <path id="Path_58" data-name="Path 58" d="M39.762,10l.259,1.058a1.077,1.077,0,0,0,2.093,0L42.373,10a4.565,4.565,0,0,1,2.738-3.055.855.855,0,0,0,.13-.071,1.121,1.121,0,0,0,0-1.865.857.857,0,0,0-.13-.071A4.565,4.565,0,0,1,42.373,1.88L42.114.821a1.077,1.077,0,0,0-2.093,0l-.259,1.058a4.564,4.564,0,0,1-2.738,3.055.856.856,0,0,0-.13.071,1.121,1.121,0,0,0,0,1.865.869.869,0,0,0,.129.071A4.564,4.564,0,0,1,39.762,10Zm1.305-6.635a6.04,6.04,0,0,0,2.274,2.576,6.041,6.041,0,0,0-2.274,2.576,6.042,6.042,0,0,0-2.274-2.576A6.042,6.042,0,0,0,41.067,3.363Z" transform="translate(-36.395 0)" fill="#ae8b3b"/>
</svg>
