<svg id="warranty" xmlns="http://www.w3.org/2000/svg" width="54.912" height="58.833" viewBox="0 0 54.912 58.833">
  <path id="Path_59" data-name="Path 59" d="M30.882,61.689a2.785,2.785,0,0,0,.819.125,2.751,2.751,0,0,0,.8-.121A36.72,36.72,0,0,0,43.521,56.42a.981.981,0,0,0-1.132-1.6,34.79,34.79,0,0,1-10.448,4.992.822.822,0,0,1-.5,0,34.39,34.39,0,0,1-13.219-7.17.981.981,0,1,0-1.292,1.471A36.33,36.33,0,0,0,30.882,61.689Z" transform="translate(-4.243 -2.98)" fill="#ae8b3b"/>
  <path id="Path_60" data-name="Path 60" d="M5.539,15.053a.981.981,0,0,0-1.1.842c-.691,5.169-1.515,18.424,5.742,29.879a.981.981,0,1,0,1.657-1.049C4.922,33.816,5.717,21.111,6.379,16.155A.981.981,0,0,0,5.539,15.053Z" transform="translate(-4 -2.257)" fill="#ae8b3b"/>
  <path id="Path_61" data-name="Path 61" d="M13.032,48.543a.981.981,0,0,0-.149,1.38c.294.365.609.73.933,1.094a.982.982,0,1,0,1.471-1.3c-.3-.342-.6-.686-.872-1.024a.981.981,0,0,0-1.383-.149Z" transform="translate(-4.168 -2.902)" fill="#ae8b3b"/>
  <path id="Path_62" data-name="Path 62" d="M56.342,12.413A53.353,53.353,0,0,1,45.924,9.486a53.373,53.373,0,0,1-12.34-6.9,2.907,2.907,0,0,0-3.494,0A53.836,53.836,0,0,1,24.167,6.44a.981.981,0,0,0,.96,1.71,55.839,55.839,0,0,0,6.143-4,.932.932,0,0,1,1.136,0,55.338,55.338,0,0,0,12.8,7.159,55.373,55.373,0,0,0,10.811,3.04.951.951,0,0,1,.784.818c.631,4.144,1.591,14.894-3.109,25.167a.981.981,0,1,0,1.783.817c4.92-10.755,3.922-21.96,3.265-26.281A2.916,2.916,0,0,0,56.342,12.413Z" transform="translate(-4.381 -2.005)" fill="#ae8b3b"/>
  <path id="Path_63" data-name="Path 63" d="M30.627,54.122a2.772,2.772,0,0,0,.946.17,2.72,2.72,0,0,0,.932-.166,31.717,31.717,0,0,0,3.948-1.7.981.981,0,0,0-.9-1.745,29.615,29.615,0,0,1-3.712,1.6.761.761,0,0,1-.554,0,27.948,27.948,0,0,1-11.5-7.5c-7.4-8.072-8.054-18.878-7.785-24.58a1.191,1.191,0,0,1,.113-.438.981.981,0,0,0-1.765-.847,3.189,3.189,0,0,0-.3,1.177c-.284,6.028.416,17.425,8.3,26.019A29.859,29.859,0,0,0,30.627,54.122Z" transform="translate(-4.116 -2.322)" fill="#ae8b3b"/>
  <path id="Path_64" data-name="Path 64" d="M50.361,36.626a.964.964,0,0,0,.336.061.981.981,0,0,0,.921-.644,41.472,41.472,0,0,0,2.246-15.972,3,3,0,0,0-.99-2.089.981.981,0,1,0-1.31,1.453,1.049,1.049,0,0,1,.343.731,39.491,39.491,0,0,1-2.127,15.2.981.981,0,0,0,.582,1.26Z" transform="translate(-4.886 -2.308)" fill="#ae8b3b"/>
  <path id="Path_65" data-name="Path 65" d="M31.585,11.042a.907.907,0,0,1,.869.065,59.719,59.719,0,0,0,8.882,4.725.981.981,0,0,0,.771-1.8,57.892,57.892,0,0,1-8.591-4.572,2.872,2.872,0,0,0-2.72-.21.981.981,0,0,0,.784,1.795Z" transform="translate(-4.509 -2.14)" fill="#ae8b3b"/>
  <path id="Path_66" data-name="Path 66" d="M47.447,18.127a.97.97,0,0,0,.282.041.981.981,0,0,0,.28-1.92c-.474-.142-.946-.3-1.42-.474a.981.981,0,0,0-.665,1.846C46.433,17.8,46.94,17.975,47.447,18.127Z" transform="translate(-4.8 -2.27)" fill="#ae8b3b"/>
  <path id="Path_67" data-name="Path 67" d="M26.483,29.336a3.118,3.118,0,0,0-4.365,0L20.89,30.588a3.159,3.159,0,0,0,0,4.4L28.4,42.653a3.046,3.046,0,0,0,4.364,0l13.8-14.083a3.159,3.159,0,0,0,0-4.4l-1.228-1.252A3.03,3.03,0,0,0,43.158,22h0a3.034,3.034,0,0,0-2.183.921l-9.61,9.806a1.11,1.11,0,0,1-1.561,0ZM32.768,34.1l9.61-9.806a1.086,1.086,0,0,1,1.562,0l1.228,1.253a1.186,1.186,0,0,1,0,1.651l-13.8,14.084a1.11,1.11,0,0,1-1.561,0l-7.513-7.669a1.186,1.186,0,0,1,0-1.651l1.228-1.253a1.112,1.112,0,0,1,1.562,0L28.4,34.1a3.118,3.118,0,0,0,4.364,0Z" transform="translate(-4.31 -2.392)" fill="#ae8b3b"/>
  <path id="Path_68" data-name="Path 68" d="M9,13.806a.981.981,0,0,0,.8.964c6.218,1.145,6.894,1.821,8.041,8.041a.981.981,0,0,0,1.928,0c1.145-6.218,1.821-6.894,8.041-8.041a.981.981,0,0,0,0-1.928C21.6,11.7,20.919,11.021,19.772,4.8a.981.981,0,0,0-1.928,0C16.7,11.019,16.023,11.7,9.8,12.842A.981.981,0,0,0,9,13.806Zm9.806-4.618a6.472,6.472,0,0,0,4.618,4.618,6.472,6.472,0,0,0-4.618,4.618,6.472,6.472,0,0,0-4.618-4.618A6.472,6.472,0,0,0,18.806,9.189Z" transform="translate(-4.097 -2.044)" fill="#ae8b3b"/>
  <path id="Path_69" data-name="Path 69" d="M58.809,48.842c-6.218-1.145-6.894-1.821-8.041-8.041a.981.981,0,0,0-1.928,0c-1.145,6.218-1.821,6.894-8.041,8.041a.981.981,0,0,0,0,1.928c6.218,1.145,6.894,1.821,8.041,8.041a.981.981,0,0,0,1.928,0c1.145-6.218,1.821-6.894,8.041-8.041a.981.981,0,0,0,0-1.928Zm-9,5.582a6.472,6.472,0,0,0-4.618-4.618,6.472,6.472,0,0,0,4.618-4.618,6.472,6.472,0,0,0,4.618,4.618,6.472,6.472,0,0,0-4.618,4.618Z" transform="translate(-4.698 -2.74)" fill="#ae8b3b"/>
</svg>
