<svg id="card" xmlns="http://www.w3.org/2000/svg" width="58.832" height="44.052" viewBox="0 0 58.832 44.052">
  <g id="Group_40" data-name="Group 40" transform="translate(0 0)">
    <path id="Path_46" data-name="Path 46" d="M58.432,69.119A2.581,2.581,0,0,0,55.9,67.033H50.522a4.808,4.808,0,0,1-3.916-2.04,1.586,1.586,0,0,0-2.6,0,4.808,4.808,0,0,1-3.916,2.04H34.718a2.581,2.581,0,0,0-2.534,2.086,22.174,22.174,0,0,0-.338,2.539H12.755a.862.862,0,0,0,0,1.724h19.03a22.271,22.271,0,0,0,.442,4.354H1.724V75.824a2.445,2.445,0,0,1,2.442-2.442H8.733a.862.862,0,0,0,0-1.724H4.166A4.17,4.17,0,0,0,0,75.824V104.2a4.17,4.17,0,0,0,4.166,4.166H50.286a4.17,4.17,0,0,0,4.166-4.166V86.547q.448-.6.857-1.235a22.182,22.182,0,0,0,3.123-16.193ZM1.724,79.459H32.648A22.038,22.038,0,0,0,34.635,84.2H1.724Zm51,24.745a2.445,2.445,0,0,1-2.442,2.442H4.166A2.445,2.445,0,0,1,1.724,104.2V85.92H35.715a22.218,22.218,0,0,0,8.729,7.428,2,2,0,0,0,1.729,0,22.2,22.2,0,0,0,6.556-4.758ZM53.86,84.378a20.5,20.5,0,0,1-8.428,7.414.287.287,0,0,1-.248,0A20.456,20.456,0,0,1,33.877,69.446a.855.855,0,0,1,.841-.689h5.376a6.533,6.533,0,0,0,5.214-2.618,6.533,6.533,0,0,0,5.214,2.618H55.9a.855.855,0,0,1,.841.689A20.459,20.459,0,0,1,53.86,84.378Z" transform="translate(0 -64.318)" fill="#ae8b3b"/>
    <path id="Path_47" data-name="Path 47" d="M332.386,113.392a8.039,8.039,0,0,0-6.892,12.177.862.862,0,0,0,1.477-.889,6.316,6.316,0,1,1,2.6,2.4.862.862,0,0,0-.769,1.543,7.957,7.957,0,0,0,3.581.842,8.039,8.039,0,0,0,0-16.077Z" transform="translate(-287.078 -107.753)" fill="#ae8b3b"/>
    <path id="Path_48" data-name="Path 48" d="M359.944,162.994a.862.862,0,0,0,.609-.252l4.622-4.622a.862.862,0,0,0-1.219-1.219l-4.013,4.013-2.158-2.158a.862.862,0,1,0-1.219,1.219l2.767,2.767A.861.861,0,0,0,359.944,162.994Z" transform="translate(-315.372 -146.039)" fill="#ae8b3b"/>
    <path id="Path_49" data-name="Path 49" d="M40.748,282.5H51.771a1.438,1.438,0,0,0,1.436-1.436v-5.012a1.438,1.438,0,0,0-1.436-1.436H40.748a1.438,1.438,0,0,0-1.436,1.436v5.012A1.438,1.438,0,0,0,40.748,282.5Zm.287-6.161H51.484v4.437H41.036Z" transform="translate(-34.795 -250.454)" fill="#ae8b3b"/>
    <path id="Path_50" data-name="Path 50" d="M225.23,352.57H201.112a1.438,1.438,0,0,0-1.436,1.436v3.45a1.438,1.438,0,0,0,1.436,1.436h1.933a.862.862,0,0,0,0-1.724H201.4v-2.876h15.638v2.876h-9.97a.862.862,0,1,0,0,1.724H225.23a1.438,1.438,0,0,0,1.436-1.436v-3.45A1.438,1.438,0,0,0,225.23,352.57Zm-.287,4.6h-6.182v-2.876h6.182Z" transform="translate(-176.732 -319.447)" fill="#ae8b3b"/>
    <path id="Path_51" data-name="Path 51" d="M53.662,392.6H40.174a.862.862,0,0,0,0,1.724H53.662a.862.862,0,1,0,0-1.724Z" transform="translate(-34.795 -354.874)" fill="#ae8b3b"/>
    <path id="Path_52" data-name="Path 52" d="M41.963,362.611a.862.862,0,0,0,0,1.724h.561a.862.862,0,0,0,0-1.724Z" transform="translate(-36.378 -328.334)" fill="#ae8b3b"/>
    <path id="Path_53" data-name="Path 53" d="M71.833,362.611a.862.862,0,0,0,0,1.724h.561a.862.862,0,0,0,0-1.724Z" transform="translate(-62.816 -328.334)" fill="#ae8b3b"/>
    <path id="Path_54" data-name="Path 54" d="M101.7,362.611a.862.862,0,0,0,0,1.724h.561a.862.862,0,0,0,0-1.724Z" transform="translate(-89.254 -328.334)" fill="#ae8b3b"/>
  </g>
</svg>
