<svg id="XMLID_753_" xmlns="http://www.w3.org/2000/svg" xmlns:xlink="http://www.w3.org/1999/xlink" width="102.551" height="102.544" viewBox="0 0 102.551 102.544">
  <defs>
    <linearGradient id="linear-gradient" x1="-0.187" x2="1.096" y2="0.841" gradientUnits="objectBoundingBox">
      <stop offset="0" stop-color="#ae8b3b"/>
      <stop offset="0.64" stop-color="#ebb639"/>
      <stop offset="0.798" stop-color="#d98d12"/>
      <stop offset="1" stop-color="#c08d41"/>
    </linearGradient>
  </defs>
  <g id="XMLID_1101_" transform="translate(0 0)">
    <path id="XMLID_1262_" d="M95.715,66.32a20.6,20.6,0,0,0-18.7-4.88L64.273,48.7l22.1-22.1a1.991,1.991,0,0,0,.463-.727h5.294A2,2,0,0,0,93.9,24.8l8.352-16.128a2,2,0,0,0-.362-2.337L96.244.68A2,2,0,0,0,93.907.317L77.779,8.669A2,2,0,0,0,76.7,10.448v5.294a1.991,1.991,0,0,0-.727.463l-22.1,22.1L41.082,25.51A20.8,20.8,0,0,0,11.012,2.464a2,2,0,0,0-.472,3.182l9.923,9.922a3.464,3.464,0,0,1-4.9,4.9L5.642,10.547a2,2,0,0,0-3.182.472A20.8,20.8,0,0,0,6.836,36.243a20.6,20.6,0,0,0,18.7,4.88l8.269,8.269a7.253,7.253,0,0,0-2.889,1.772L4.257,77.826a14.489,14.489,0,0,0,20.49,20.49l4.411-4.411a2,2,0,1,0-2.832-2.832l-4.411,4.411A10.484,10.484,0,0,1,7.089,80.658L28.463,59.285,43.289,74.111l-4.218,4.218A2,2,0,0,0,41.9,81.16l9.506-9.506a7.269,7.269,0,0,0,1.776-2.886l8.284,8.284A20.811,20.811,0,0,0,91.539,100.1a2,2,0,0,0,.472-3.182l-9.923-9.923a3.464,3.464,0,0,1,4.9-4.9l9.921,9.921a2,2,0,0,0,3.182-.472A20.8,20.8,0,0,0,95.715,66.32ZM94.447,4.548l3.579,3.579L90.908,21.872H84.469L80.7,18.1V11.666Zm-17.062,15.9,4.735,4.736L48.695,58.615l-4.736-4.736ZM25.569,36.972A16.634,16.634,0,0,1,9.53,33.279,16.809,16.809,0,0,1,4.887,15.457L12.731,23.3A7.47,7.47,0,1,0,23.294,12.737L15.447,4.889A16.8,16.8,0,0,1,36.934,25.556a2,2,0,0,0,.507,1.976l13.6,13.6L47.5,44.674l-7.49-7.49a2,2,0,1,0-2.832,2.832l7.49,7.49-3.541,3.541L27.555,37.475a2,2,0,0,0-1.986-.5ZM48.577,68.823l-2.456,2.456L31.3,56.453,33.751,54a3.3,3.3,0,0,1,4.661,0L48.577,64.162a3.3,3.3,0,0,1,0,4.661ZM97.663,87.105,89.82,79.262A7.47,7.47,0,1,0,79.256,89.826L87.1,97.674A16.8,16.8,0,0,1,65.618,77.007a2,2,0,0,0-.507-1.976L51.527,61.447l3.541-3.541,7.473,7.473a2,2,0,1,0,2.832-2.832L57.9,55.074l3.541-3.541L75,65.087a2,2,0,0,0,1.986.5,16.634,16.634,0,0,1,16.039,3.693,16.809,16.809,0,0,1,4.643,17.822Z" transform="translate(0 -0.016)" fill="url(#linear-gradient)"/>
    <path id="XMLID_2199_" d="M162.351,419.951a2,2,0,1,0,1.416.587A2.017,2.017,0,0,0,162.351,419.951Z" transform="translate(-128.236 -335.853)" fill="url(#linear-gradient)"/>
  </g>
</svg>
