<svg id="diamond" xmlns="http://www.w3.org/2000/svg" xmlns:xlink="http://www.w3.org/1999/xlink" width="102.535" height="102.535" viewBox="0 0 102.535 102.535">
  <defs>
    <linearGradient id="linear-gradient" x1="-0.187" x2="1.096" y2="0.841" gradientUnits="objectBoundingBox">
      <stop offset="0" stop-color="#ae8b3b"/>
      <stop offset="0.64" stop-color="#ebb639"/>
      <stop offset="0.798" stop-color="#d98d12"/>
      <stop offset="1" stop-color="#c08d41"/>
    </linearGradient>
  </defs>
  <path id="Path_106" data-name="Path 106" d="M78.647,31.874a1.05,1.05,0,0,0,0-.224,1.11,1.11,0,0,0-.048-.32l-.048-.192a.1.1,0,0,1-.016-.064,1.243,1.243,0,0,0-.256-.385L66.071,17.1a1.578,1.578,0,0,0-1.154-.513H24.592a1.551,1.551,0,0,0-1.154.513L11.247,30.673a1.927,1.927,0,0,0-.288.417c-.016.032-.016.064-.032.1s-.016.064-.032.1a1.447,1.447,0,0,0-.064.449v.128a1.6,1.6,0,0,0,.128.529c0,.016.016.016.016.032a1.639,1.639,0,0,0,.224.352L43.561,68.835c.032.048.1.064.128.1a1.052,1.052,0,0,0,.272.192,1.465,1.465,0,0,0,.224.112,1.116,1.116,0,0,0,.4.08c.048,0,.1.032.144.032.032,0,.08-.016.112-.016a2.029,2.029,0,0,0,.449-.1,1.747,1.747,0,0,0,.176-.1,1.524,1.524,0,0,0,.32-.24c.032-.032.064-.032.1-.064L78.135,32.9v-.016l.1-.112a1.074,1.074,0,0,0,.144-.224,1.993,1.993,0,0,0,.16-.32,1.26,1.26,0,0,0,.112-.352Zm-5.015-1.73H58.092l-4.71-10.462H64.228ZM34.557,33.252H54.9l-10.157,29.7Zm.24-3.108,4.71-10.462H49.97l4.71,10.462ZM25.281,19.666h10.83L31.4,30.128H15.877Zm5.992,13.586,9.533,27.8-24.945-27.8ZM48.688,61.033l9.517-27.8H73.633Z" transform="translate(6.521 9.989)" fill="url(#linear-gradient)"/>
  <path id="Path_107" data-name="Path 107" d="M32.584,9.068a1.545,1.545,0,0,0,1.554-1.554V1.554a1.554,1.554,0,0,0-3.108,0v5.96A1.556,1.556,0,0,0,32.584,9.068Z" transform="translate(18.684)" fill="url(#linear-gradient)"/>
  <path id="Path_108" data-name="Path 108" d="M18.695,11.643a1.558,1.558,0,0,0,1.346.769,1.5,1.5,0,0,0,.769-.208,1.566,1.566,0,0,0,.577-2.115L18.407,4.93a1.547,1.547,0,0,0-2.115-.561,1.566,1.566,0,0,0-.577,2.115Z" transform="translate(9.342 2.504)" fill="url(#linear-gradient)"/>
  <path id="Path_109" data-name="Path 109" d="M4.932,18.419l5.159,2.98a1.5,1.5,0,0,0,.769.208,1.541,1.541,0,0,0,.769-2.884L6.47,15.743a1.528,1.528,0,0,0-2.115.545,1.581,1.581,0,0,0,.577,2.131Z" transform="translate(2.502 9.346)" fill="url(#linear-gradient)"/>
  <path id="Path_110" data-name="Path 110" d="M9.068,32.584A1.545,1.545,0,0,0,7.514,31.03H1.554a1.554,1.554,0,0,0,0,3.108h5.96A1.556,1.556,0,0,0,9.068,32.584Z" transform="translate(0 18.684)" fill="url(#linear-gradient)"/>
  <path id="Path_111" data-name="Path 111" d="M10.089,44.9,4.93,47.879a1.546,1.546,0,0,0,.785,2.884,1.5,1.5,0,0,0,.769-.208l5.159-2.98A1.547,1.547,0,1,0,10.089,44.9Z" transform="translate(2.504 26.907)" fill="url(#linear-gradient)"/>
  <path id="Path_112" data-name="Path 112" d="M20.824,54.9a1.531,1.531,0,0,0-2.115.577l-2.98,5.159a1.534,1.534,0,0,0,.577,2.115,1.5,1.5,0,0,0,.769.208,1.539,1.539,0,0,0,1.346-.769L21.4,57.03A1.563,1.563,0,0,0,20.824,54.9Z" transform="translate(9.344 32.929)" fill="url(#linear-gradient)"/>
  <path id="Path_113" data-name="Path 113" d="M32.584,58.34a1.545,1.545,0,0,0-1.554,1.554v5.96a1.554,1.554,0,0,0,3.108,0v-5.96A1.556,1.556,0,0,0,32.584,58.34Z" transform="translate(18.684 35.127)" fill="url(#linear-gradient)"/>
  <path id="Path_114" data-name="Path 114" d="M47.587,55.462A1.55,1.55,0,0,0,44.895,57l2.98,5.159a1.558,1.558,0,0,0,1.346.769,1.5,1.5,0,0,0,.769-.208,1.566,1.566,0,0,0,.577-2.115Z" transform="translate(26.912 32.927)" fill="url(#linear-gradient)"/>
  <path id="Path_115" data-name="Path 115" d="M62.173,47.869l-5.159-2.98a1.55,1.55,0,1,0-1.538,2.692l5.159,2.98a1.5,1.5,0,0,0,.769.208A1.539,1.539,0,0,0,62.749,50,1.581,1.581,0,0,0,62.173,47.869Z" transform="translate(32.929 26.902)" fill="url(#linear-gradient)"/>
  <path id="Path_116" data-name="Path 116" d="M65.854,31.03h-5.96a1.554,1.554,0,0,0,0,3.108h5.96a1.554,1.554,0,0,0,0-3.108Z" transform="translate(35.127 18.684)" fill="url(#linear-gradient)"/>
  <path id="Path_117" data-name="Path 117" d="M56.231,21.595A1.5,1.5,0,0,0,57,21.386l5.159-2.98a1.55,1.55,0,0,0-1.538-2.692l-5.159,2.98a1.553,1.553,0,0,0,.769,2.9Z" transform="translate(32.927 9.342)" fill="url(#linear-gradient)"/>
  <path id="Path_118" data-name="Path 118" d="M45.463,12.2a1.5,1.5,0,0,0,.769.208,1.539,1.539,0,0,0,1.346-.769l2.98-5.159a1.55,1.55,0,1,0-2.692-1.538L44.886,10.1A1.533,1.533,0,0,0,45.463,12.2Z" transform="translate(26.904 2.504)" fill="url(#linear-gradient)"/>
</svg>
