<svg xmlns="http://www.w3.org/2000/svg" width="55.816" height="21.903" viewBox="0 0 55.816 21.903">
  <g id="G_Pay_Lockup_1_" transform="translate(0 0)">
    <g id="Pay_Typeface_3_" transform="translate(24.002 1.164)">
      <path id="Letter_p_3_" d="M222.219,175.717v6.457H220.17V166.229H225.6a4.9,4.9,0,0,1,3.511,1.377,4.6,4.6,0,0,1,0,6.745,4.891,4.891,0,0,1-3.511,1.355h-3.383Zm0-7.524v5.56h3.426a2.735,2.735,0,0,0,2.028-.822,2.687,2.687,0,0,0,.822-1.953,2.844,2.844,0,0,0-2.849-2.775h-3.426Z" transform="translate(-220.17 -166.229)"/>
      <path id="Letter_a_3_" d="M325.959,209.108a5.069,5.069,0,0,1,3.586,1.217,4.318,4.318,0,0,1,1.313,3.33v6.725H328.9v-1.516h-.085a3.9,3.9,0,0,1-3.383,1.868,4.392,4.392,0,0,1-3.02-1.067A3.409,3.409,0,0,1,321.2,217a3.223,3.223,0,0,1,1.281-2.69,5.372,5.372,0,0,1,3.415-1,5.969,5.969,0,0,1,3,.672v-.47a2.326,2.326,0,0,0-.843-1.815,2.892,2.892,0,0,0-1.985-.747,3.113,3.113,0,0,0-2.711,1.452l-1.8-1.131A5,5,0,0,1,325.959,209.108Zm-2.647,7.92a1.616,1.616,0,0,0,.683,1.334,2.508,2.508,0,0,0,1.59.534,3.249,3.249,0,0,0,2.305-.961,3.015,3.015,0,0,0,1.014-2.252,4.22,4.22,0,0,0-2.668-.758,3.5,3.5,0,0,0-2.081.6A1.823,1.823,0,0,0,323.312,217.028Z" transform="translate(-310.185 -204.433)"/>
      <path id="Letter_y_3_" d="M422.856,212.338l-6.83,15.71h-2.113l2.54-5.5-4.5-10.214h2.23l3.244,7.834h.043l3.159-7.834h2.231Z" transform="translate(-391.042 -207.309)"/>
    </g>
    <path id="Path_96" data-name="Path 96" d="M92.438,223.684H83.849v3.522H88.8a4.237,4.237,0,0,1-1.836,2.837h0l-.089,2.105,3.034.179h0a8.951,8.951,0,0,0,2.7-6.723A10.8,10.8,0,0,0,92.438,223.684Z" transform="translate(-74.708 -216.255)" fill="#0085f7"/>
    <path id="Path_97" data-name="Path 97" d="M20.2,255.071h0a5.54,5.54,0,0,1-8.242-2.9h0l-2.533-.4-.5,2.757a9.143,9.143,0,0,0,8.17,5.035,8.72,8.72,0,0,0,6.053-2.209h0Z" transform="translate(-7.95 -241.282)" fill="#00a94b"/>
    <path id="Path_98" data-name="Path 98" d="M3.724,205.851A5.512,5.512,0,0,1,4.01,204.1l-.791-2.357H.972a9.156,9.156,0,0,0,0,8.212h0L4.01,207.6h0A5.511,5.511,0,0,1,3.724,205.851Z" transform="translate(0 -196.709)" fill="#fb0"/>
    <path id="Path_99" data-name="Path 99" d="M17.089,155.558a9.145,9.145,0,0,0-8.171,5.035l3.037,2.357a5.469,5.469,0,0,1,5.133-3.774,4.968,4.968,0,0,1,3.508,1.371l2.609-2.607A8.782,8.782,0,0,0,17.089,155.558Z" transform="translate(-7.946 -155.558)" fill="#ff4031"/>
  </g>
</svg>
