<svg xmlns="http://www.w3.org/2000/svg" width="58.805" height="56.455" viewBox="0 0 58.805 56.455">
  <path id="global-network" d="M56.53,49.631a.851.851,0,0,0,.045-.108,28.491,28.491,0,0,0-1.664-25.435,3.493,3.493,0,0,0-4.154-5.424c-.6-.616-1.236-1.207-1.892-1.765a3.491,3.491,0,0,0-5.687-3.757,28.136,28.136,0,0,0-25.2.133,3.487,3.487,0,0,0-5.709,3.87,28.43,28.43,0,0,0-2.691,2.69c-.719.823.584,1.952,1.3,1.134a26.7,26.7,0,0,1,2.5-2.5,3.512,3.512,0,0,0,5.143-1.281,37.517,37.517,0,0,1,8.833,3.823,3.548,3.548,0,0,0,.26,2.536,39.652,39.652,0,0,0-6.1,6.622,3.52,3.52,0,0,0-4.165,1.889A53.754,53.754,0,0,0,6.535,33.216a3.514,3.514,0,0,0-1.371-1.4,26.387,26.387,0,0,1,3.16-7.4.863.863,0,0,0-1.464-.91A28.105,28.105,0,0,0,3.5,31.374a3.5,3.5,0,0,0-.891,6.881A28.469,28.469,0,0,0,12.159,59.67a3.488,3.488,0,0,0,5.58,3.845,28.129,28.129,0,0,0,25.945,0,3.486,3.486,0,0,0,5.647-3.9,28.222,28.222,0,0,0,7.2-9.982ZM55.444,47.7A54.066,54.066,0,0,0,47.66,41.3a3.532,3.532,0,0,0-.873-3.55A53.858,53.858,0,0,0,52.267,25.3a3.447,3.447,0,0,0,1.229-.222A26.761,26.761,0,0,1,55.444,47.7ZM15.786,57.446a37.806,37.806,0,0,1,3.7-20.6,3.52,3.52,0,0,0,4.452-2.685,51.6,51.6,0,0,1,17.037,5.194,3.541,3.541,0,0,0,.571,2.947,52.025,52.025,0,0,1-23.192,16.75,3.483,3.483,0,0,0-2.565-1.609Zm26.8-17.214A1.771,1.771,0,1,1,44.344,42,1.767,1.767,0,0,1,42.586,40.232ZM54.033,21.81a1.771,1.771,0,1,1-1.758-1.771,1.767,1.767,0,0,1,1.758,1.771ZM49.44,19.784A3.537,3.537,0,0,0,50.6,24.871a52.142,52.142,0,0,1-5.3,12,3.537,3.537,0,0,0-1.485-.1A39.974,39.974,0,0,0,33.806,23.543a3.544,3.544,0,0,0,.26-2.536,37.515,37.515,0,0,1,8.492-3.723,3.486,3.486,0,0,0,5.3,1.021q.82.706,1.583,1.478ZM28.954,21.943a1.771,1.771,0,1,1,1.758,1.771A1.767,1.767,0,0,1,28.954,21.943Zm16.669-8.087a1.758,1.758,0,1,1-1.758,1.771A1.767,1.767,0,0,1,45.623,13.856ZM15.409,17.4a1.758,1.758,0,1,1,1.758-1.771A1.767,1.767,0,0,1,15.409,17.4Zm3.479-1.9a3.5,3.5,0,0,0-.1-.7,26.407,26.407,0,0,1,23.5-.174,3.494,3.494,0,0,0-.146.985,39.244,39.244,0,0,0-8.932,3.9,3.509,3.509,0,0,0-4.995,0,39.245,39.245,0,0,0-9.327-4.017Zm9.871,9.34a3.494,3.494,0,0,0,3.905,0,38.241,38.241,0,0,1,9.567,12.622,3.52,3.52,0,0,0-.429.39,53.311,53.311,0,0,0-17.982-5.433A3.5,3.5,0,0,0,23,31.063a37.913,37.913,0,0,1,5.762-6.228ZM20.516,31.74a1.758,1.758,0,1,1-1.758,1.771A1.767,1.767,0,0,1,20.516,31.74ZM1.709,34.868a1.771,1.771,0,1,1,1.758,1.771,1.767,1.767,0,0,1-1.758-1.771Zm2.622,3.386a3.422,3.422,0,0,0,2.618-3.363,97.18,97.18,0,0,1,10.1-1.111,3.488,3.488,0,0,0,.967,2.157,39.525,39.525,0,0,0-3.933,21.755,3.487,3.487,0,0,0-.918.564c-5.623-5.037-8.83-13.476-8.83-20ZM15.409,62.691a1.771,1.771,0,0,1,0-3.542,1.8,1.8,0,0,1,1.758,1.771A1.767,1.767,0,0,1,15.409,62.691Zm15.3,2.284a26.319,26.319,0,0,1-12.016-2.9,3.585,3.585,0,0,0,.187-1.377A53.742,53.742,0,0,0,42.875,43.4a3.475,3.475,0,0,0,1.653.322,38.055,38.055,0,0,1,.9,4.321.862.862,0,0,0,1.705-.252,39.782,39.782,0,0,0-.959-4.587,3.5,3.5,0,0,0,.572-.445,52.324,52.324,0,0,1,7.986,6.674,26.5,26.5,0,0,1-6.485,8.837,3.474,3.474,0,0,0-.912-.492,40.055,40.055,0,0,0,.218-4.82.862.862,0,0,0-1.723.027,38.331,38.331,0,0,1-.211,4.633,3.533,3.533,0,0,0-2.8,4.406,26.315,26.315,0,0,1-12.105,2.95Zm15.454-2.134a1.758,1.758,0,1,1,1.758-1.771A1.767,1.767,0,0,1,46.166,62.841Z" transform="translate(-0.002 -10.23)" fill="#ae8b3b"/>
</svg>
