<svg id="innovation" xmlns="http://www.w3.org/2000/svg" xmlns:xlink="http://www.w3.org/1999/xlink" width="82.032" height="102.535" viewBox="0 0 82.032 102.535">
  <defs>
    <linearGradient id="linear-gradient" x1="-0.187" x2="1.096" y2="0.841" gradientUnits="objectBoundingBox">
      <stop offset="0" stop-color="#ae8b3b"/>
      <stop offset="0.64" stop-color="#ebb639"/>
      <stop offset="0.798" stop-color="#d98d12"/>
      <stop offset="1" stop-color="#c08d41"/>
    </linearGradient>
  </defs>
  <g id="Group_87372" data-name="Group 87372" transform="translate(19.126 19.126)">
    <g id="Group_87371" data-name="Group 87371">
      <path id="Path_119" data-name="Path 119" d="M188.348,112.589H183.8a15.822,15.822,0,0,0-1.057-2.554l3.216-3.216a2.129,2.129,0,0,0,0-3.01l-3.785-3.785a2.132,2.132,0,0,0-3.01,0l-3.216,3.216a15.812,15.812,0,0,0-2.554-1.057V97.634a2.131,2.131,0,0,0-2.129-2.129H165.91a2.131,2.131,0,0,0-2.128,2.129v4.549a15.832,15.832,0,0,0-2.554,1.057l-3.217-3.217a2.131,2.131,0,0,0-3.01,0l-3.785,3.785a2.128,2.128,0,0,0,0,3.01l3.216,3.216a15.813,15.813,0,0,0-1.057,2.554h-4.549a2.131,2.131,0,0,0-2.128,2.129v5.353a2.131,2.131,0,0,0,2.128,2.128h4.549a15.824,15.824,0,0,0,1.057,2.554l-3.216,3.216a2.131,2.131,0,0,0,0,3.01L155,134.765a2.131,2.131,0,0,0,3.01,0l3.216-3.216a15.814,15.814,0,0,0,2.554,1.057v4.549a2.131,2.131,0,0,0,2.128,2.128h5.353a2.131,2.131,0,0,0,2.129-2.128v-4.549a15.819,15.819,0,0,0,2.554-1.057l3.216,3.216a2.131,2.131,0,0,0,3.01,0l3.785-3.785a2.129,2.129,0,0,0,0-3.01l-3.216-3.216A15.812,15.812,0,0,0,183.8,122.2h4.549a2.131,2.131,0,0,0,2.129-2.128v-5.353A2.131,2.131,0,0,0,188.348,112.589Zm-.875,6.606h-4.818a1.5,1.5,0,0,0-1.463,1.16,12.842,12.842,0,0,1-1.6,3.858,1.5,1.5,0,0,0,.214,1.855l3.407,3.407-2.547,2.547-3.407-3.407a1.5,1.5,0,0,0-1.855-.214,12.854,12.854,0,0,1-3.858,1.6,1.5,1.5,0,0,0-1.16,1.463v4.818h-3.6v-4.818a1.5,1.5,0,0,0-1.16-1.463,12.836,12.836,0,0,1-3.858-1.6,1.5,1.5,0,0,0-1.855.214l-3.407,3.407-2.547-2.547,3.407-3.407a1.5,1.5,0,0,0,.214-1.855,12.847,12.847,0,0,1-1.6-3.858,1.5,1.5,0,0,0-1.463-1.16H149.7v-3.6h4.818a1.5,1.5,0,0,0,1.463-1.16,12.847,12.847,0,0,1,1.6-3.858,1.5,1.5,0,0,0-.214-1.855l-3.407-3.407,2.547-2.547,3.407,3.407a1.5,1.5,0,0,0,1.855.214,12.843,12.843,0,0,1,3.858-1.6,1.5,1.5,0,0,0,1.16-1.463V98.509h3.6v4.818a1.5,1.5,0,0,0,1.16,1.463,12.849,12.849,0,0,1,3.859,1.6,1.5,1.5,0,0,0,1.855-.214l3.407-3.407,2.547,2.547-3.407,3.407a1.5,1.5,0,0,0-.214,1.855,12.849,12.849,0,0,1,1.6,3.858,1.5,1.5,0,0,0,1.463,1.16h4.818Z" transform="translate(-146.697 -95.505)" fill="url(#linear-gradient)"/>
    </g>
  </g>
  <g id="Group_87374" data-name="Group 87374" transform="translate(32.969 32.969)">
    <g id="Group_87373" data-name="Group 87373">
      <path id="Path_120" data-name="Path 120" d="M223.867,164.628a8.047,8.047,0,1,0,8.047,8.047A8.056,8.056,0,0,0,223.867,164.628Zm0,13.089a5.043,5.043,0,1,1,5.043-5.043A5.048,5.048,0,0,1,223.867,177.717Z" transform="translate(-215.82 -164.628)" fill="url(#linear-gradient)"/>
    </g>
  </g>
  <g id="Group_87376" data-name="Group 87376" transform="translate(0 39.514)">
    <g id="Group_87375" data-name="Group 87375">
      <path id="Path_121" data-name="Path 121" d="M57.677,197.308H52.694a1.5,1.5,0,1,0,0,3h4.983a1.5,1.5,0,1,0,0-3Z" transform="translate(-51.192 -197.308)" fill="url(#linear-gradient)"/>
    </g>
  </g>
  <g id="Group_87378" data-name="Group 87378" transform="translate(74.045 39.514)">
    <g id="Group_87377" data-name="Group 87377">
      <path id="Path_122" data-name="Path 122" d="M427.412,197.308h-4.983a1.5,1.5,0,1,0,0,3h4.983a1.5,1.5,0,1,0,0-3Z" transform="translate(-420.927 -197.308)" fill="url(#linear-gradient)"/>
    </g>
  </g>
  <g id="Group_87380" data-name="Group 87380" transform="translate(11.573 63.931)">
    <g id="Group_87379" data-name="Group 87379">
      <path id="Path_123" data-name="Path 123" d="M115.069,319.672a1.5,1.5,0,0,0-2.124,0l-3.523,3.523a1.5,1.5,0,1,0,2.124,2.124l3.523-3.523A1.5,1.5,0,0,0,115.069,319.672Z" transform="translate(-108.981 -319.232)" fill="url(#linear-gradient)"/>
    </g>
  </g>
  <g id="Group_87382" data-name="Group 87382" transform="translate(63.931 11.573)">
    <g id="Group_87381" data-name="Group 87381">
      <path id="Path_124" data-name="Path 124" d="M376.511,58.231a1.5,1.5,0,0,0-2.124,0l-3.523,3.523a1.5,1.5,0,0,0,2.124,2.124l3.523-3.523A1.5,1.5,0,0,0,376.511,58.231Z" transform="translate(-370.423 -57.791)" fill="url(#linear-gradient)"/>
    </g>
  </g>
  <g id="Group_87384" data-name="Group 87384" transform="translate(39.514)">
    <g id="Group_87383" data-name="Group 87383">
      <path id="Path_125" data-name="Path 125" d="M250,0a1.5,1.5,0,0,0-1.5,1.5V6.485a1.5,1.5,0,0,0,3,0V1.5A1.5,1.5,0,0,0,250,0Z" transform="translate(-248.501)" fill="url(#linear-gradient)"/>
    </g>
  </g>
  <g id="Group_87386" data-name="Group 87386" transform="translate(63.931 63.931)">
    <g id="Group_87385" data-name="Group 87385">
      <path id="Path_126" data-name="Path 126" d="M376.511,323.2l-3.523-3.523a1.5,1.5,0,0,0-2.124,2.124l3.523,3.523a1.5,1.5,0,1,0,2.124-2.124Z" transform="translate(-370.423 -319.232)" fill="url(#linear-gradient)"/>
    </g>
  </g>
  <g id="Group_87388" data-name="Group 87388" transform="translate(11.573 11.573)">
    <g id="Group_87387" data-name="Group 87387">
      <path id="Path_127" data-name="Path 127" d="M115.069,61.755l-3.523-3.523a1.5,1.5,0,1,0-2.124,2.124l3.523,3.523a1.5,1.5,0,0,0,2.124-2.124Z" transform="translate(-108.981 -57.791)" fill="url(#linear-gradient)"/>
    </g>
  </g>
  <g id="Group_87390" data-name="Group 87390" transform="translate(43.018 10.923)">
    <g id="Group_87389" data-name="Group 87389">
      <path id="Path_128" data-name="Path 128" d="M293.962,80.958a30.207,30.207,0,0,0-26.279-26.4,1.5,1.5,0,1,0-.364,2.982,27.053,27.053,0,0,1,23.658,23.769,1.5,1.5,0,0,0,1.49,1.327,1.552,1.552,0,0,0,.177-.01A1.5,1.5,0,0,0,293.962,80.958Z" transform="translate(-265.999 -54.545)" fill="url(#linear-gradient)"/>
    </g>
  </g>
  <g id="Group_87392" data-name="Group 87392" transform="translate(10.842 10.926)">
    <g id="Group_87391" data-name="Group 87391">
      <path id="Path_129" data-name="Path 129" d="M164.133,86.661a1.5,1.5,0,0,0-1.679,1.3,27.066,27.066,0,0,1-12.525,19.58,10.1,10.1,0,0,0-4.775,8.595v6.182h-19.3V116a9.891,9.891,0,0,0-4.628-8.366,27.172,27.172,0,0,1,10.958-50.085,1.5,1.5,0,1,0-.369-2.981,30.174,30.174,0,0,0-12.171,55.62,6.866,6.866,0,0,1,3.2,5.812v6.537a3.909,3.909,0,0,0-2.628,3.687v2.141a3.883,3.883,0,0,0,.833,2.4,3.881,3.881,0,0,0-.833,2.4v2.141a3.91,3.91,0,0,0,3.905,3.905h4.722v3.4a3.556,3.556,0,0,0,3.552,3.552h6.208a3.556,3.556,0,0,0,3.552-3.552v-3.4h4.722a3.91,3.91,0,0,0,3.905-3.905v-2.141a3.882,3.882,0,0,0-.833-2.4,3.882,3.882,0,0,0,.833-2.4v-2.141a3.909,3.909,0,0,0-2.628-3.687v-6.4a7.117,7.117,0,0,1,3.368-6.05A30.059,30.059,0,0,0,165.433,88.34,1.5,1.5,0,0,0,164.133,86.661Zm-24.979,55.953a.555.555,0,0,1-.548.548H132.4a.555.555,0,0,1-.548-.548v-3.4h7.3Zm8.628-7.3a.913.913,0,0,1-.9.9H124.124a.913.913,0,0,1-.9-.9v-2.141a.913.913,0,0,1,.9-.9h22.756a.913.913,0,0,1,.9.9Zm0-6.948a.913.913,0,0,1-.9.9H124.124a.913.913,0,0,1-.9-.9v-2.141a.913.913,0,0,1,.9-.9h22.756a.913.913,0,0,1,.9.9Z" transform="translate(-105.328 -54.556)" fill="url(#linear-gradient)"/>
    </g>
  </g>
</svg>
