<svg xmlns="http://www.w3.org/2000/svg" width="33" height="33" viewBox="0 0 33 33">
  <path id="Icon_material-outline-light-mode" data-name="Icon material-outline-light-mode" d="M18,13.5A4.5,4.5,0,1,1,13.5,18,4.513,4.513,0,0,1,18,13.5m0-3A7.5,7.5,0,1,0,25.5,18,7.5,7.5,0,0,0,18,10.5Zm-15,9H6a1.5,1.5,0,0,0,0-3H3a1.5,1.5,0,0,0,0,3Zm27,0h3a1.5,1.5,0,0,0,0-3H30a1.5,1.5,0,0,0,0,3ZM16.5,3V6a1.5,1.5,0,0,0,3,0V3a1.5,1.5,0,0,0-3,0Zm0,27v3a1.5,1.5,0,0,0,3,0V30a1.5,1.5,0,0,0-3,0ZM8.985,6.87A1.5,1.5,0,1,0,6.87,8.985l1.59,1.59A1.5,1.5,0,0,0,10.575,8.46ZM27.54,25.425a1.5,1.5,0,1,0-2.115,2.115l1.59,1.59a1.5,1.5,0,1,0,2.115-2.115Zm1.59-16.44A1.5,1.5,0,1,0,27.015,6.87l-1.59,1.59a1.5,1.5,0,0,0,2.115,2.115ZM10.575,27.54A1.5,1.5,0,1,0,8.46,25.425l-1.59,1.59A1.5,1.5,0,1,0,8.985,29.13Z" transform="translate(-1.5 -1.5)" fill="#ae8b3b"/>
</svg>
