<svg xmlns="http://www.w3.org/2000/svg" width="29.497" height="33" viewBox="0 0 29.497 33">
  <g id="Icon_akar-shopping-bag" data-name="Icon akar-shopping-bag" transform="translate(-3.251 -1.5)">
    <path id="Path_42" data-name="Path 42" d="M8.956,10.5v0H27.043a4.5,4.5,0,0,1,4.486,4.141l1.2,15A4.5,4.5,0,0,1,28.25,34.5H7.75a4.5,4.5,0,0,1-4.485-4.86l1.2-15A4.5,4.5,0,0,1,8.956,10.5Zm19.294,21a1.5,1.5,0,0,0,1.494-1.62l-1.2-15a1.508,1.508,0,0,0-1.5-1.381H8.956a1.508,1.508,0,0,0-1.5,1.38l-1.2,15A1.5,1.5,0,0,0,7.751,31.5Z" fill="#ae8b3b"/>
    <path id="Path_43" data-name="Path 43" d="M24,18a1.5,1.5,0,0,1-1.5-1.5V9a4.5,4.5,0,0,0-9,0v7.5a1.5,1.5,0,0,1-3,0V9a7.5,7.5,0,0,1,15,0v7.5A1.5,1.5,0,0,1,24,18Z" fill="#ae8b3b"/>
  </g>
</svg>
