<svg xmlns="http://www.w3.org/2000/svg" xmlns:xlink="http://www.w3.org/1999/xlink" width="99.331" height="98.115" viewBox="0 0 99.331 98.115">
  <defs>
    <linearGradient id="linear-gradient" x1="-0.187" x2="1.096" y2="0.841" gradientUnits="objectBoundingBox">
      <stop offset="0" stop-color="#ae8b3b"/>
      <stop offset="0.64" stop-color="#ebb639"/>
      <stop offset="0.798" stop-color="#d98d12"/>
      <stop offset="1" stop-color="#c08d41"/>
    </linearGradient>
  </defs>
  <path id="trust" d="M8.92,74.766l7.061,3.321a4.58,4.58,0,0,0,1.951.437,4.629,4.629,0,0,0,3.376-1.468l2.735,1.965a11.634,11.634,0,0,1,1.669,3.926,19.753,19.753,0,0,0,1.7,4.335l-.876,1.5a5.574,5.574,0,0,0,6.28,8.2,5.573,5.573,0,0,0,5.388,4.216A5.637,5.637,0,0,0,39.631,101l.047-.014A5.555,5.555,0,0,0,45.07,105.2a5.629,5.629,0,0,0,3.388-1.136,5.539,5.539,0,0,0,4.832,2.826,5.639,5.639,0,0,0,3.547-1.26l4.51,2.678a5.973,5.973,0,0,0,3.057.842,6.1,6.1,0,0,0,1.513-.192,6.016,6.016,0,0,0,4.538-5.77,6.019,6.019,0,0,0,7.681-6.761,6.015,6.015,0,0,0,5.519-7.266,6.147,6.147,0,0,0,.781-.146,6.017,6.017,0,0,0,4.347-7.333,6.178,6.178,0,0,0-.337-.971,18.948,18.948,0,0,0,6.292-3.034,4.584,4.584,0,0,0,4.608.406l7.06-3.321a1.6,1.6,0,1,0-1.363-2.9l-7.061,3.321a1.407,1.407,0,0,1-1.865-.673L85.187,51.268a1.4,1.4,0,0,1,.668-1.865l7.062-3.321a1.6,1.6,0,1,0-1.363-2.9L84.489,46.5a4.611,4.611,0,0,0-2.638,4.206,24.283,24.283,0,0,1-5.888,1.468,38.413,38.413,0,0,1-7.695-.535c-5.275-.684-10.729-1.391-14.38.761l-2.005,1.18c-3.355-2.423-6.53-2.043-9.873-1.639a25.005,25.005,0,0,1-7.049.136c-.525-.078-1.06-.185-1.611-.322A4.616,4.616,0,0,0,30.837,46.5l-7.061-3.322a1.6,1.6,0,1,0-1.363,2.9l7.06,3.32a1.4,1.4,0,0,1,.67,1.865L19.208,74.514a1.4,1.4,0,0,1-1.865.673l-7.062-3.321a1.6,1.6,0,1,0-1.362,2.9Zm21.233,18.88a2.383,2.383,0,0,1-.851-3.251l1.353-2.312c.024-.037.046-.075.066-.114l2.588-4.42a2.375,2.375,0,1,1,4.1,2.395l-4.007,6.851a2.385,2.385,0,0,1-3.254.852Zm6.869,4.013a2.376,2.376,0,0,1-.85-3.246l4.008-6.852a2.374,2.374,0,1,1,4.1,2.4l-4.009,6.849a2.379,2.379,0,0,1-3.245.848Zm6.863,4.019a2.383,2.383,0,0,1-.851-3.251l4.008-6.846a2.375,2.375,0,0,1,4.1,2.395l-2.007,3.43L48.5,98.5c-.03.051-.057.1-.086.154l-1.271,2.173a2.388,2.388,0,0,1-3.255.853Zm8.228,1.693a2.372,2.372,0,0,1-1.1-1.455,2.343,2.343,0,0,1,.2-1.72l.681-1.164,2.02-3.428a2.371,2.371,0,0,1,4.349.6A2.336,2.336,0,0,1,58.02,98l-2.655,4.516a2.393,2.393,0,0,1-3.253.859Zm3.4-48.208c2.7-1.593,7.825-.929,12.342-.344a40.265,40.265,0,0,0,8.413.547,26.989,26.989,0,0,0,6.55-1.6L92.85,75.092a17.064,17.064,0,0,1-6.776,2.924l-.05-.031L76.6,72.391a1.607,1.607,0,0,0-.936-.22c-6.679.495-13.731-.16-20.062-8.229a1.6,1.6,0,0,0-1.812-.515l-3.825,1.4a1.6,1.6,0,0,0-.739.554l-2.6,3.523c-1.454,1.925-3.438,2.556-5.306,1.687a1.963,1.963,0,0,1-.772-2.908l4.426-6.322,7.57-4.455,0,0Zm-13.121-.039c2.547-.307,4.45-.536,6.34.312l-5.676,3.341a1.605,1.605,0,0,0-.5.462l-4.622,6.6a5.167,5.167,0,0,0,2.04,7.657c3.239,1.506,6.856.461,9.226-2.677l2.319-3.148,2.3-.843C60.749,75.04,68.558,75.848,75.4,75.4L84.39,80.74A2.83,2.83,0,1,1,81.5,85.607l-7.277-4.314a1.6,1.6,0,1,0-1.634,2.756l6.558,3.888c.02.013.04.028.062.04a2.83,2.83,0,0,1-2.89,4.868l-7.239-4.3A1.6,1.6,0,1,0,67.443,91.3l6.174,3.666.02.013a2.83,2.83,0,0,1-2.89,4.867l-3.234-1.92-.006,0L64.533,96.16A1.6,1.6,0,1,0,62.9,98.916l2.976,1.766a2.874,2.874,0,0,1,.988,3.879,2.844,2.844,0,0,1-3.878.994l-4.218-2.5,2.015-3.427a5.57,5.57,0,0,0-6.282-8.2c-.005-.02-.009-.04-.014-.061A5.563,5.563,0,0,0,47.629,87.4c0-.017-.008-.035-.012-.052a5.563,5.563,0,0,0-6.849-3.967,5.577,5.577,0,0,0-10.223-1.45l-1.158,1.976c-.219-.61-.415-1.254-.608-1.889-.586-1.931-1.193-3.927-2.5-5.3l-.1-.109-3.294-2.365L32.054,54.73a20.856,20.856,0,0,0,2.435.519,27.988,27.988,0,0,0,7.9-.124Zm14.664-8.668a1.6,1.6,0,0,0,1.212,0c7.416-3.03,15.34-12.242,15.34-29.009a1.6,1.6,0,0,0-1.585-1.6A20.77,20.77,0,0,1,58.67,11.394a1.6,1.6,0,0,0-2.013,0A20.771,20.771,0,0,1,43.3,15.846a1.6,1.6,0,0,0-1.585,1.6C41.717,34.215,49.642,43.427,57.058,46.457Zm.606-31.8a23.942,23.942,0,0,0,12.718,4.338c-.435,13.737-6.67,21.445-12.718,24.235-6.048-2.791-12.283-10.5-12.718-24.235a23.943,23.943,0,0,0,12.718-4.338Zm-2.32,18.583-2.713-2.611a1.6,1.6,0,1,1,2.222-2.309l1.528,1.47,4.023-4.41a1.6,1.6,0,1,1,2.368,2.159l-5.132,5.625a1.6,1.6,0,0,1-1.131.521h-.052a1.6,1.6,0,0,1-1.112-.446Z" transform="translate(-7.998 -11.038)" fill="url(#linear-gradient)"/>
</svg>
