<svg id="visa_16183667" xmlns="http://www.w3.org/2000/svg" width="50.261" height="16.273" viewBox="0 0 50.261 16.273">
  <g id="形状_1_3_" transform="translate(4.393 0)">
    <g id="形状_1">
      <g id="Group_47" data-name="Group 47">
        <path id="Path_100" data-name="Path 100" d="M81.222,182.145l-2.558,15.721h4.093l2.558-15.721Zm-6,0-3.9,10.813-.462-2.328h0l-.1-.522a13.037,13.037,0,0,0-3.631-4.6,16.374,16.374,0,0,0-1.821-1.26l3.546,13.621h4.264l6.512-15.721Zm15.973,4.365c0-1.777,3.986-1.549,5.737-.584l.584-3.377a11.814,11.814,0,0,0-3.681-.686c-2.031,0-6.854.888-6.854,5.2,0,4.062,5.661,4.113,5.661,6.245s-5.077,1.751-6.753.406l-.609,3.529a11.464,11.464,0,0,0,4.62.888c2.793,0,7.007-1.447,7.007-5.382C96.905,188.668,91.194,188.287,91.194,186.51Zm16.7-4.365H104.6a1.881,1.881,0,0,0-1.889,1.172l-6.1,14.55h4.266l.853-2.335h5.2l.48,2.335h3.758Zm-4.985,10.16,2.151-5.883,1.21,5.883Z" transform="translate(-65.303 -181.864)" fill="#005bac" fill-rule="evenodd"/>
      </g>
    </g>
  </g>
  <g id="形状_1_2_" transform="translate(0 0.342)">
    <g id="形状_1_1_">
      <g id="Group_48" data-name="Group 48">
        <path id="Path_101" data-name="Path 101" d="M33.635,186.426a1.775,1.775,0,0,0-1.978-1.419H25.086l-.077.267A16.281,16.281,0,0,1,31.2,188.33a12.278,12.278,0,0,1,3.84,5.18Z" transform="translate(-25.009 -185.007)" fill="#f6ac1d" fill-rule="evenodd"/>
      </g>
    </g>
  </g>
</svg>
